G04 EAGLE Gerber X2 export*
G75*
%MOMM*%
%FSLAX34Y34*%
%LPD*%
%AMOC8*
5,1,8,0,0,1.08239X$1,22.5*%
G01*
%ADD10C,0.254000*%
%ADD11C,0.152400*%


D10*
X26670Y97790D02*
X26672Y97861D01*
X26678Y97932D01*
X26688Y98003D01*
X26702Y98073D01*
X26720Y98142D01*
X26741Y98209D01*
X26767Y98276D01*
X26796Y98341D01*
X26828Y98404D01*
X26865Y98466D01*
X26904Y98525D01*
X26947Y98582D01*
X26993Y98636D01*
X27042Y98688D01*
X27094Y98737D01*
X27148Y98783D01*
X27205Y98826D01*
X27264Y98865D01*
X27326Y98902D01*
X27389Y98934D01*
X27454Y98963D01*
X27521Y98989D01*
X27588Y99010D01*
X27657Y99028D01*
X27727Y99042D01*
X27798Y99052D01*
X27869Y99058D01*
X27940Y99060D01*
X28011Y99058D01*
X28082Y99052D01*
X28153Y99042D01*
X28223Y99028D01*
X28292Y99010D01*
X28359Y98989D01*
X28426Y98963D01*
X28491Y98934D01*
X28554Y98902D01*
X28616Y98865D01*
X28675Y98826D01*
X28732Y98783D01*
X28786Y98737D01*
X28838Y98688D01*
X28887Y98636D01*
X28933Y98582D01*
X28976Y98525D01*
X29015Y98466D01*
X29052Y98404D01*
X29084Y98341D01*
X29113Y98276D01*
X29139Y98209D01*
X29160Y98142D01*
X29178Y98073D01*
X29192Y98003D01*
X29202Y97932D01*
X29208Y97861D01*
X29210Y97790D01*
X29208Y97719D01*
X29202Y97648D01*
X29192Y97577D01*
X29178Y97507D01*
X29160Y97438D01*
X29139Y97371D01*
X29113Y97304D01*
X29084Y97239D01*
X29052Y97176D01*
X29015Y97114D01*
X28976Y97055D01*
X28933Y96998D01*
X28887Y96944D01*
X28838Y96892D01*
X28786Y96843D01*
X28732Y96797D01*
X28675Y96754D01*
X28616Y96715D01*
X28554Y96678D01*
X28491Y96646D01*
X28426Y96617D01*
X28359Y96591D01*
X28292Y96570D01*
X28223Y96552D01*
X28153Y96538D01*
X28082Y96528D01*
X28011Y96522D01*
X27940Y96520D01*
X27869Y96522D01*
X27798Y96528D01*
X27727Y96538D01*
X27657Y96552D01*
X27588Y96570D01*
X27521Y96591D01*
X27454Y96617D01*
X27389Y96646D01*
X27326Y96678D01*
X27264Y96715D01*
X27205Y96754D01*
X27148Y96797D01*
X27094Y96843D01*
X27042Y96892D01*
X26993Y96944D01*
X26947Y96998D01*
X26904Y97055D01*
X26865Y97114D01*
X26828Y97176D01*
X26796Y97239D01*
X26767Y97304D01*
X26741Y97371D01*
X26720Y97438D01*
X26702Y97507D01*
X26688Y97577D01*
X26678Y97648D01*
X26672Y97719D01*
X26670Y97790D01*
X24130Y2540D02*
X24132Y2611D01*
X24138Y2682D01*
X24148Y2753D01*
X24162Y2823D01*
X24180Y2892D01*
X24201Y2959D01*
X24227Y3026D01*
X24256Y3091D01*
X24288Y3154D01*
X24325Y3216D01*
X24364Y3275D01*
X24407Y3332D01*
X24453Y3386D01*
X24502Y3438D01*
X24554Y3487D01*
X24608Y3533D01*
X24665Y3576D01*
X24724Y3615D01*
X24786Y3652D01*
X24849Y3684D01*
X24914Y3713D01*
X24981Y3739D01*
X25048Y3760D01*
X25117Y3778D01*
X25187Y3792D01*
X25258Y3802D01*
X25329Y3808D01*
X25400Y3810D01*
X25471Y3808D01*
X25542Y3802D01*
X25613Y3792D01*
X25683Y3778D01*
X25752Y3760D01*
X25819Y3739D01*
X25886Y3713D01*
X25951Y3684D01*
X26014Y3652D01*
X26076Y3615D01*
X26135Y3576D01*
X26192Y3533D01*
X26246Y3487D01*
X26298Y3438D01*
X26347Y3386D01*
X26393Y3332D01*
X26436Y3275D01*
X26475Y3216D01*
X26512Y3154D01*
X26544Y3091D01*
X26573Y3026D01*
X26599Y2959D01*
X26620Y2892D01*
X26638Y2823D01*
X26652Y2753D01*
X26662Y2682D01*
X26668Y2611D01*
X26670Y2540D01*
X26668Y2469D01*
X26662Y2398D01*
X26652Y2327D01*
X26638Y2257D01*
X26620Y2188D01*
X26599Y2121D01*
X26573Y2054D01*
X26544Y1989D01*
X26512Y1926D01*
X26475Y1864D01*
X26436Y1805D01*
X26393Y1748D01*
X26347Y1694D01*
X26298Y1642D01*
X26246Y1593D01*
X26192Y1547D01*
X26135Y1504D01*
X26076Y1465D01*
X26014Y1428D01*
X25951Y1396D01*
X25886Y1367D01*
X25819Y1341D01*
X25752Y1320D01*
X25683Y1302D01*
X25613Y1288D01*
X25542Y1278D01*
X25471Y1272D01*
X25400Y1270D01*
X25329Y1272D01*
X25258Y1278D01*
X25187Y1288D01*
X25117Y1302D01*
X25048Y1320D01*
X24981Y1341D01*
X24914Y1367D01*
X24849Y1396D01*
X24786Y1428D01*
X24724Y1465D01*
X24665Y1504D01*
X24608Y1547D01*
X24554Y1593D01*
X24502Y1642D01*
X24453Y1694D01*
X24407Y1748D01*
X24364Y1805D01*
X24325Y1864D01*
X24288Y1926D01*
X24256Y1989D01*
X24227Y2054D01*
X24201Y2121D01*
X24180Y2188D01*
X24162Y2257D01*
X24148Y2327D01*
X24138Y2398D01*
X24132Y2469D01*
X24130Y2540D01*
D11*
X27940Y50800D02*
X80010Y50800D01*
M02*
