G04 EAGLE Gerber X2 export*
G75*
%MOMM*%
%FSLAX34Y34*%
%LPD*%
%AMOC8*
5,1,8,0,0,1.08239X$1,22.5*%
G01*
%ADD10C,0.050800*%
%ADD11C,2.082800*%


D10*
X21844Y12703D02*
X24892Y12703D01*
X24892Y14227D01*
X24384Y14227D01*
X23876Y15721D02*
X22860Y15721D01*
X23876Y15721D02*
X23939Y15723D01*
X24001Y15729D01*
X24063Y15738D01*
X24124Y15752D01*
X24184Y15769D01*
X24243Y15790D01*
X24301Y15814D01*
X24357Y15842D01*
X24411Y15873D01*
X24463Y15908D01*
X24513Y15945D01*
X24560Y15986D01*
X24605Y16030D01*
X24648Y16076D01*
X24687Y16125D01*
X24723Y16176D01*
X24756Y16229D01*
X24785Y16284D01*
X24812Y16341D01*
X24834Y16399D01*
X24853Y16459D01*
X24868Y16520D01*
X24880Y16581D01*
X24888Y16643D01*
X24892Y16706D01*
X24892Y16768D01*
X24888Y16831D01*
X24880Y16893D01*
X24868Y16954D01*
X24853Y17015D01*
X24834Y17075D01*
X24812Y17133D01*
X24785Y17190D01*
X24756Y17245D01*
X24723Y17298D01*
X24687Y17349D01*
X24648Y17398D01*
X24605Y17444D01*
X24560Y17488D01*
X24513Y17529D01*
X24463Y17566D01*
X24411Y17601D01*
X24357Y17632D01*
X24301Y17660D01*
X24243Y17684D01*
X24184Y17705D01*
X24124Y17722D01*
X24063Y17736D01*
X24001Y17745D01*
X23939Y17751D01*
X23876Y17753D01*
X22860Y17753D01*
X22797Y17751D01*
X22735Y17745D01*
X22673Y17736D01*
X22612Y17722D01*
X22552Y17705D01*
X22493Y17684D01*
X22435Y17660D01*
X22379Y17632D01*
X22325Y17601D01*
X22273Y17566D01*
X22223Y17529D01*
X22176Y17488D01*
X22131Y17444D01*
X22088Y17398D01*
X22049Y17349D01*
X22013Y17298D01*
X21980Y17245D01*
X21951Y17190D01*
X21924Y17133D01*
X21902Y17075D01*
X21883Y17015D01*
X21868Y16954D01*
X21856Y16893D01*
X21848Y16831D01*
X21844Y16768D01*
X21844Y16706D01*
X21848Y16643D01*
X21856Y16581D01*
X21868Y16520D01*
X21883Y16459D01*
X21902Y16399D01*
X21924Y16341D01*
X21951Y16284D01*
X21980Y16229D01*
X22013Y16176D01*
X22049Y16125D01*
X22088Y16076D01*
X22131Y16030D01*
X22176Y15986D01*
X22223Y15945D01*
X22273Y15908D01*
X22325Y15873D01*
X22379Y15842D01*
X22435Y15814D01*
X22493Y15790D01*
X22552Y15769D01*
X22612Y15752D01*
X22673Y15738D01*
X22735Y15729D01*
X22797Y15723D01*
X22860Y15721D01*
X24892Y19286D02*
X24892Y20810D01*
X26416Y19794D02*
X22606Y19794D01*
X22552Y19796D01*
X22498Y19802D01*
X22444Y19811D01*
X22391Y19825D01*
X22340Y19842D01*
X22289Y19863D01*
X22241Y19887D01*
X22194Y19915D01*
X22149Y19946D01*
X22107Y19980D01*
X22067Y20017D01*
X22030Y20057D01*
X21996Y20099D01*
X21965Y20144D01*
X21937Y20191D01*
X21913Y20239D01*
X21892Y20290D01*
X21875Y20341D01*
X21861Y20394D01*
X21852Y20448D01*
X21846Y20502D01*
X21844Y20556D01*
X21844Y20810D01*
X23622Y23441D02*
X23622Y24584D01*
X23622Y23441D02*
X23620Y23383D01*
X23614Y23325D01*
X23605Y23268D01*
X23592Y23211D01*
X23575Y23155D01*
X23554Y23101D01*
X23530Y23048D01*
X23503Y22997D01*
X23472Y22947D01*
X23438Y22900D01*
X23401Y22855D01*
X23362Y22812D01*
X23319Y22773D01*
X23274Y22736D01*
X23227Y22702D01*
X23178Y22671D01*
X23126Y22644D01*
X23073Y22620D01*
X23019Y22599D01*
X22963Y22582D01*
X22906Y22569D01*
X22849Y22560D01*
X22791Y22554D01*
X22733Y22552D01*
X22675Y22554D01*
X22617Y22560D01*
X22560Y22569D01*
X22503Y22582D01*
X22447Y22599D01*
X22393Y22620D01*
X22340Y22644D01*
X22289Y22671D01*
X22239Y22702D01*
X22192Y22736D01*
X22147Y22773D01*
X22104Y22812D01*
X22065Y22855D01*
X22028Y22900D01*
X21994Y22947D01*
X21963Y22997D01*
X21936Y23048D01*
X21912Y23101D01*
X21891Y23155D01*
X21874Y23211D01*
X21861Y23268D01*
X21852Y23325D01*
X21846Y23383D01*
X21844Y23441D01*
X21844Y24584D01*
X24130Y24584D01*
X24184Y24582D01*
X24238Y24576D01*
X24292Y24567D01*
X24345Y24553D01*
X24396Y24536D01*
X24447Y24515D01*
X24495Y24491D01*
X24542Y24463D01*
X24587Y24432D01*
X24629Y24398D01*
X24669Y24361D01*
X24706Y24321D01*
X24740Y24279D01*
X24771Y24234D01*
X24799Y24187D01*
X24823Y24139D01*
X24844Y24088D01*
X24861Y24037D01*
X24875Y23984D01*
X24884Y23930D01*
X24890Y23876D01*
X24892Y23822D01*
X24892Y22806D01*
X24892Y26296D02*
X24892Y27820D01*
X26416Y26804D02*
X22606Y26804D01*
X22552Y26806D01*
X22498Y26812D01*
X22444Y26821D01*
X22391Y26835D01*
X22340Y26852D01*
X22289Y26873D01*
X22241Y26897D01*
X22194Y26925D01*
X22149Y26956D01*
X22107Y26990D01*
X22067Y27027D01*
X22030Y27067D01*
X21996Y27109D01*
X21965Y27154D01*
X21937Y27201D01*
X21913Y27249D01*
X21892Y27300D01*
X21875Y27351D01*
X21861Y27404D01*
X21852Y27458D01*
X21846Y27512D01*
X21844Y27566D01*
X21844Y27820D01*
X21844Y30351D02*
X21844Y31621D01*
X21844Y30351D02*
X21846Y30297D01*
X21852Y30243D01*
X21861Y30189D01*
X21875Y30136D01*
X21892Y30085D01*
X21913Y30034D01*
X21937Y29986D01*
X21965Y29939D01*
X21996Y29894D01*
X22030Y29852D01*
X22067Y29812D01*
X22107Y29775D01*
X22149Y29741D01*
X22194Y29710D01*
X22241Y29682D01*
X22289Y29658D01*
X22340Y29637D01*
X22391Y29620D01*
X22444Y29606D01*
X22498Y29597D01*
X22552Y29591D01*
X22606Y29589D01*
X23876Y29589D01*
X23939Y29591D01*
X24001Y29597D01*
X24063Y29606D01*
X24124Y29620D01*
X24184Y29637D01*
X24243Y29658D01*
X24301Y29682D01*
X24357Y29710D01*
X24411Y29741D01*
X24463Y29776D01*
X24513Y29813D01*
X24560Y29854D01*
X24605Y29898D01*
X24648Y29944D01*
X24687Y29993D01*
X24723Y30044D01*
X24756Y30097D01*
X24785Y30152D01*
X24812Y30209D01*
X24834Y30267D01*
X24853Y30327D01*
X24868Y30388D01*
X24880Y30449D01*
X24888Y30511D01*
X24892Y30574D01*
X24892Y30636D01*
X24888Y30699D01*
X24880Y30761D01*
X24868Y30822D01*
X24853Y30883D01*
X24834Y30943D01*
X24812Y31001D01*
X24785Y31058D01*
X24756Y31113D01*
X24723Y31166D01*
X24687Y31217D01*
X24648Y31266D01*
X24605Y31312D01*
X24560Y31356D01*
X24513Y31397D01*
X24463Y31434D01*
X24411Y31469D01*
X24357Y31500D01*
X24301Y31528D01*
X24243Y31552D01*
X24184Y31573D01*
X24124Y31590D01*
X24063Y31604D01*
X24001Y31613D01*
X23939Y31619D01*
X23876Y31621D01*
X23368Y31621D01*
X23368Y29589D01*
X21844Y37412D02*
X21846Y37473D01*
X21851Y37534D01*
X21861Y37595D01*
X21874Y37655D01*
X21890Y37714D01*
X21910Y37772D01*
X21934Y37829D01*
X21960Y37884D01*
X21991Y37938D01*
X22024Y37989D01*
X22060Y38039D01*
X22100Y38086D01*
X22142Y38130D01*
X22186Y38172D01*
X22233Y38212D01*
X22283Y38248D01*
X22334Y38281D01*
X22388Y38312D01*
X22443Y38338D01*
X22500Y38362D01*
X22558Y38382D01*
X22617Y38398D01*
X22677Y38411D01*
X22738Y38421D01*
X22799Y38426D01*
X22860Y38428D01*
X21844Y37412D02*
X21846Y37323D01*
X21851Y37234D01*
X21861Y37145D01*
X21874Y37057D01*
X21890Y36969D01*
X21910Y36882D01*
X21934Y36797D01*
X21962Y36712D01*
X21992Y36628D01*
X22027Y36546D01*
X22064Y36465D01*
X22105Y36386D01*
X22150Y36308D01*
X22197Y36233D01*
X22248Y36159D01*
X22301Y36088D01*
X22358Y36019D01*
X22417Y35952D01*
X22479Y35888D01*
X25400Y36015D02*
X25461Y36017D01*
X25522Y36022D01*
X25583Y36032D01*
X25643Y36045D01*
X25702Y36061D01*
X25760Y36081D01*
X25817Y36105D01*
X25872Y36131D01*
X25926Y36162D01*
X25977Y36195D01*
X26027Y36231D01*
X26074Y36271D01*
X26118Y36313D01*
X26160Y36357D01*
X26200Y36404D01*
X26236Y36454D01*
X26269Y36505D01*
X26300Y36559D01*
X26326Y36614D01*
X26350Y36671D01*
X26370Y36729D01*
X26386Y36788D01*
X26399Y36848D01*
X26409Y36909D01*
X26414Y36970D01*
X26416Y37031D01*
X26414Y37113D01*
X26409Y37194D01*
X26400Y37275D01*
X26388Y37356D01*
X26372Y37436D01*
X26353Y37516D01*
X26331Y37595D01*
X26305Y37672D01*
X26276Y37748D01*
X26243Y37823D01*
X26208Y37897D01*
X26169Y37969D01*
X26127Y38039D01*
X26083Y38108D01*
X26035Y38174D01*
X24511Y36523D02*
X24545Y36470D01*
X24581Y36419D01*
X24621Y36370D01*
X24664Y36324D01*
X24710Y36280D01*
X24758Y36239D01*
X24808Y36202D01*
X24861Y36167D01*
X24916Y36136D01*
X24972Y36108D01*
X25030Y36084D01*
X25090Y36063D01*
X25150Y36046D01*
X25212Y36032D01*
X25274Y36023D01*
X25337Y36017D01*
X25400Y36015D01*
X23749Y37920D02*
X23715Y37973D01*
X23679Y38024D01*
X23639Y38073D01*
X23596Y38119D01*
X23550Y38163D01*
X23502Y38204D01*
X23452Y38241D01*
X23399Y38276D01*
X23344Y38307D01*
X23288Y38335D01*
X23230Y38359D01*
X23170Y38380D01*
X23110Y38397D01*
X23048Y38411D01*
X22986Y38420D01*
X22923Y38426D01*
X22860Y38428D01*
X23749Y37920D02*
X24511Y36523D01*
X21844Y40054D02*
X26416Y41578D01*
X21844Y43102D01*
X22987Y42721D02*
X22987Y40435D01*
X23114Y44880D02*
X25146Y44880D01*
X25216Y44882D01*
X25286Y44888D01*
X25355Y44897D01*
X25424Y44911D01*
X25492Y44928D01*
X25558Y44949D01*
X25624Y44973D01*
X25688Y45001D01*
X25750Y45033D01*
X25811Y45068D01*
X25870Y45106D01*
X25926Y45148D01*
X25980Y45192D01*
X26032Y45240D01*
X26080Y45290D01*
X26126Y45343D01*
X26169Y45398D01*
X26209Y45455D01*
X26246Y45515D01*
X26279Y45577D01*
X26309Y45640D01*
X26335Y45705D01*
X26358Y45771D01*
X26377Y45838D01*
X26392Y45907D01*
X26404Y45976D01*
X26412Y46045D01*
X26416Y46115D01*
X26416Y46185D01*
X26412Y46255D01*
X26404Y46324D01*
X26392Y46393D01*
X26377Y46462D01*
X26358Y46529D01*
X26335Y46595D01*
X26309Y46660D01*
X26279Y46723D01*
X26246Y46785D01*
X26209Y46845D01*
X26169Y46902D01*
X26126Y46957D01*
X26080Y47010D01*
X26032Y47060D01*
X25980Y47108D01*
X25926Y47152D01*
X25870Y47194D01*
X25811Y47232D01*
X25750Y47267D01*
X25688Y47299D01*
X25624Y47327D01*
X25558Y47351D01*
X25492Y47372D01*
X25424Y47389D01*
X25355Y47403D01*
X25286Y47412D01*
X25216Y47418D01*
X25146Y47420D01*
X23114Y47420D01*
X23044Y47418D01*
X22974Y47412D01*
X22905Y47403D01*
X22836Y47389D01*
X22768Y47372D01*
X22702Y47351D01*
X22636Y47327D01*
X22572Y47299D01*
X22510Y47267D01*
X22449Y47232D01*
X22390Y47194D01*
X22334Y47152D01*
X22280Y47108D01*
X22228Y47060D01*
X22180Y47010D01*
X22134Y46957D01*
X22091Y46902D01*
X22051Y46845D01*
X22014Y46785D01*
X21981Y46723D01*
X21951Y46660D01*
X21925Y46595D01*
X21902Y46529D01*
X21883Y46462D01*
X21868Y46393D01*
X21856Y46324D01*
X21848Y46255D01*
X21844Y46185D01*
X21844Y46115D01*
X21848Y46045D01*
X21856Y45976D01*
X21868Y45907D01*
X21883Y45838D01*
X21902Y45771D01*
X21925Y45705D01*
X21951Y45640D01*
X21981Y45577D01*
X22014Y45515D01*
X22051Y45455D01*
X22091Y45398D01*
X22134Y45343D01*
X22180Y45290D01*
X22228Y45240D01*
X22280Y45192D01*
X22334Y45148D01*
X22390Y45106D01*
X22449Y45068D01*
X22510Y45033D01*
X22572Y45001D01*
X22636Y44973D01*
X22702Y44949D01*
X22768Y44928D01*
X22836Y44911D01*
X22905Y44897D01*
X22974Y44888D01*
X23044Y44882D01*
X23114Y44880D01*
X22860Y51890D02*
X26416Y52906D01*
X22860Y51890D02*
X22860Y54430D01*
X23876Y53668D02*
X21844Y53668D01*
X21844Y56462D02*
X21844Y57986D01*
X21846Y58047D01*
X21851Y58108D01*
X21861Y58169D01*
X21874Y58229D01*
X21890Y58288D01*
X21910Y58346D01*
X21934Y58403D01*
X21960Y58458D01*
X21991Y58512D01*
X22024Y58563D01*
X22060Y58613D01*
X22100Y58660D01*
X22142Y58704D01*
X22186Y58746D01*
X22233Y58786D01*
X22283Y58822D01*
X22334Y58855D01*
X22388Y58886D01*
X22443Y58912D01*
X22500Y58936D01*
X22558Y58956D01*
X22617Y58972D01*
X22677Y58985D01*
X22738Y58995D01*
X22799Y59000D01*
X22860Y59002D01*
X23368Y59002D01*
X23429Y59000D01*
X23490Y58995D01*
X23551Y58985D01*
X23611Y58972D01*
X23670Y58956D01*
X23728Y58936D01*
X23785Y58912D01*
X23840Y58886D01*
X23894Y58855D01*
X23945Y58822D01*
X23995Y58786D01*
X24042Y58746D01*
X24086Y58704D01*
X24128Y58660D01*
X24168Y58613D01*
X24204Y58563D01*
X24237Y58512D01*
X24268Y58458D01*
X24294Y58403D01*
X24318Y58346D01*
X24338Y58288D01*
X24354Y58229D01*
X24367Y58169D01*
X24377Y58108D01*
X24382Y58047D01*
X24384Y57986D01*
X24384Y56462D01*
X26416Y56462D01*
X26416Y59002D01*
X26416Y65427D02*
X21844Y65427D01*
X21844Y64157D01*
X21846Y64103D01*
X21852Y64049D01*
X21861Y63995D01*
X21875Y63942D01*
X21892Y63891D01*
X21913Y63840D01*
X21937Y63792D01*
X21965Y63745D01*
X21996Y63700D01*
X22030Y63658D01*
X22067Y63618D01*
X22107Y63581D01*
X22149Y63547D01*
X22194Y63516D01*
X22241Y63488D01*
X22289Y63464D01*
X22340Y63443D01*
X22391Y63426D01*
X22444Y63412D01*
X22498Y63403D01*
X22552Y63397D01*
X22606Y63395D01*
X24130Y63395D01*
X24184Y63397D01*
X24238Y63403D01*
X24292Y63412D01*
X24345Y63426D01*
X24396Y63443D01*
X24447Y63464D01*
X24495Y63488D01*
X24542Y63516D01*
X24587Y63547D01*
X24629Y63581D01*
X24669Y63618D01*
X24706Y63658D01*
X24740Y63700D01*
X24771Y63745D01*
X24799Y63792D01*
X24823Y63840D01*
X24844Y63891D01*
X24861Y63942D01*
X24875Y63995D01*
X24884Y64049D01*
X24890Y64103D01*
X24892Y64157D01*
X24892Y65427D01*
X21844Y68298D02*
X21844Y69568D01*
X21844Y68298D02*
X21846Y68244D01*
X21852Y68190D01*
X21861Y68136D01*
X21875Y68083D01*
X21892Y68032D01*
X21913Y67981D01*
X21937Y67933D01*
X21965Y67886D01*
X21996Y67841D01*
X22030Y67799D01*
X22067Y67759D01*
X22107Y67722D01*
X22149Y67688D01*
X22194Y67657D01*
X22241Y67629D01*
X22289Y67605D01*
X22340Y67584D01*
X22391Y67567D01*
X22444Y67553D01*
X22498Y67544D01*
X22552Y67538D01*
X22606Y67536D01*
X23876Y67536D01*
X23939Y67538D01*
X24001Y67544D01*
X24063Y67553D01*
X24124Y67567D01*
X24184Y67584D01*
X24243Y67605D01*
X24301Y67629D01*
X24357Y67657D01*
X24411Y67688D01*
X24463Y67723D01*
X24513Y67760D01*
X24560Y67801D01*
X24605Y67845D01*
X24648Y67891D01*
X24687Y67940D01*
X24723Y67991D01*
X24756Y68044D01*
X24785Y68099D01*
X24812Y68156D01*
X24834Y68214D01*
X24853Y68274D01*
X24868Y68335D01*
X24880Y68396D01*
X24888Y68458D01*
X24892Y68521D01*
X24892Y68583D01*
X24888Y68646D01*
X24880Y68708D01*
X24868Y68769D01*
X24853Y68830D01*
X24834Y68890D01*
X24812Y68948D01*
X24785Y69005D01*
X24756Y69060D01*
X24723Y69113D01*
X24687Y69164D01*
X24648Y69213D01*
X24605Y69259D01*
X24560Y69303D01*
X24513Y69344D01*
X24463Y69381D01*
X24411Y69416D01*
X24357Y69447D01*
X24301Y69475D01*
X24243Y69499D01*
X24184Y69520D01*
X24124Y69537D01*
X24063Y69551D01*
X24001Y69560D01*
X23939Y69566D01*
X23876Y69568D01*
X23368Y69568D01*
X23368Y67536D01*
X21844Y72234D02*
X21844Y73504D01*
X21844Y72234D02*
X21846Y72180D01*
X21852Y72126D01*
X21861Y72072D01*
X21875Y72019D01*
X21892Y71968D01*
X21913Y71917D01*
X21937Y71869D01*
X21965Y71822D01*
X21996Y71777D01*
X22030Y71735D01*
X22067Y71695D01*
X22107Y71658D01*
X22149Y71624D01*
X22194Y71593D01*
X22241Y71565D01*
X22289Y71541D01*
X22340Y71520D01*
X22391Y71503D01*
X22444Y71489D01*
X22498Y71480D01*
X22552Y71474D01*
X22606Y71472D01*
X24130Y71472D01*
X24184Y71474D01*
X24238Y71480D01*
X24292Y71489D01*
X24345Y71503D01*
X24396Y71520D01*
X24447Y71541D01*
X24495Y71565D01*
X24542Y71593D01*
X24587Y71624D01*
X24629Y71658D01*
X24669Y71695D01*
X24706Y71735D01*
X24740Y71777D01*
X24771Y71822D01*
X24799Y71869D01*
X24823Y71917D01*
X24844Y71968D01*
X24861Y72019D01*
X24875Y72072D01*
X24884Y72126D01*
X24890Y72180D01*
X24892Y72234D01*
X24892Y73504D01*
X21082Y73504D01*
X21028Y73502D01*
X20974Y73496D01*
X20920Y73487D01*
X20867Y73473D01*
X20816Y73456D01*
X20765Y73435D01*
X20717Y73411D01*
X20670Y73383D01*
X20625Y73352D01*
X20583Y73318D01*
X20543Y73281D01*
X20506Y73241D01*
X20472Y73199D01*
X20441Y73154D01*
X20413Y73107D01*
X20389Y73059D01*
X20368Y73008D01*
X20351Y72957D01*
X20337Y72904D01*
X20328Y72850D01*
X20322Y72796D01*
X20320Y72742D01*
X20320Y71726D01*
X21844Y75796D02*
X24892Y75796D01*
X24892Y77320D01*
X24384Y77320D01*
X21844Y79576D02*
X21844Y80846D01*
X21844Y79576D02*
X21846Y79522D01*
X21852Y79468D01*
X21861Y79414D01*
X21875Y79361D01*
X21892Y79310D01*
X21913Y79259D01*
X21937Y79211D01*
X21965Y79164D01*
X21996Y79119D01*
X22030Y79077D01*
X22067Y79037D01*
X22107Y79000D01*
X22149Y78966D01*
X22194Y78935D01*
X22241Y78907D01*
X22289Y78883D01*
X22340Y78862D01*
X22391Y78845D01*
X22444Y78831D01*
X22498Y78822D01*
X22552Y78816D01*
X22606Y78814D01*
X23876Y78814D01*
X23939Y78816D01*
X24001Y78822D01*
X24063Y78831D01*
X24124Y78845D01*
X24184Y78862D01*
X24243Y78883D01*
X24301Y78907D01*
X24357Y78935D01*
X24411Y78966D01*
X24463Y79001D01*
X24513Y79038D01*
X24560Y79079D01*
X24605Y79123D01*
X24648Y79169D01*
X24687Y79218D01*
X24723Y79269D01*
X24756Y79322D01*
X24785Y79377D01*
X24812Y79434D01*
X24834Y79492D01*
X24853Y79552D01*
X24868Y79613D01*
X24880Y79674D01*
X24888Y79736D01*
X24892Y79799D01*
X24892Y79861D01*
X24888Y79924D01*
X24880Y79986D01*
X24868Y80047D01*
X24853Y80108D01*
X24834Y80168D01*
X24812Y80226D01*
X24785Y80283D01*
X24756Y80338D01*
X24723Y80391D01*
X24687Y80442D01*
X24648Y80491D01*
X24605Y80537D01*
X24560Y80581D01*
X24513Y80622D01*
X24463Y80659D01*
X24411Y80694D01*
X24357Y80725D01*
X24301Y80753D01*
X24243Y80777D01*
X24184Y80798D01*
X24124Y80815D01*
X24063Y80829D01*
X24001Y80838D01*
X23939Y80844D01*
X23876Y80846D01*
X23368Y80846D01*
X23368Y78814D01*
X21844Y83538D02*
X21844Y84808D01*
X21844Y83538D02*
X21846Y83484D01*
X21852Y83430D01*
X21861Y83376D01*
X21875Y83323D01*
X21892Y83272D01*
X21913Y83221D01*
X21937Y83173D01*
X21965Y83126D01*
X21996Y83081D01*
X22030Y83039D01*
X22067Y82999D01*
X22107Y82962D01*
X22149Y82928D01*
X22194Y82897D01*
X22241Y82869D01*
X22289Y82845D01*
X22340Y82824D01*
X22391Y82807D01*
X22444Y82793D01*
X22498Y82784D01*
X22552Y82778D01*
X22606Y82776D01*
X23876Y82776D01*
X23939Y82778D01*
X24001Y82784D01*
X24063Y82793D01*
X24124Y82807D01*
X24184Y82824D01*
X24243Y82845D01*
X24301Y82869D01*
X24357Y82897D01*
X24411Y82928D01*
X24463Y82963D01*
X24513Y83000D01*
X24560Y83041D01*
X24605Y83085D01*
X24648Y83131D01*
X24687Y83180D01*
X24723Y83231D01*
X24756Y83284D01*
X24785Y83339D01*
X24812Y83396D01*
X24834Y83454D01*
X24853Y83514D01*
X24868Y83575D01*
X24880Y83636D01*
X24888Y83698D01*
X24892Y83761D01*
X24892Y83823D01*
X24888Y83886D01*
X24880Y83948D01*
X24868Y84009D01*
X24853Y84070D01*
X24834Y84130D01*
X24812Y84188D01*
X24785Y84245D01*
X24756Y84300D01*
X24723Y84353D01*
X24687Y84404D01*
X24648Y84453D01*
X24605Y84499D01*
X24560Y84543D01*
X24513Y84584D01*
X24463Y84621D01*
X24411Y84656D01*
X24357Y84687D01*
X24301Y84715D01*
X24243Y84739D01*
X24184Y84760D01*
X24124Y84777D01*
X24063Y84791D01*
X24001Y84800D01*
X23939Y84806D01*
X23876Y84808D01*
X23368Y84808D01*
X23368Y82776D01*
X23622Y87119D02*
X23114Y88389D01*
X23621Y87119D02*
X23642Y87073D01*
X23666Y87028D01*
X23694Y86986D01*
X23724Y86945D01*
X23758Y86907D01*
X23795Y86872D01*
X23834Y86840D01*
X23875Y86810D01*
X23919Y86785D01*
X23965Y86762D01*
X24012Y86743D01*
X24060Y86728D01*
X24110Y86717D01*
X24160Y86709D01*
X24211Y86705D01*
X24261Y86706D01*
X24312Y86710D01*
X24362Y86718D01*
X24412Y86730D01*
X24460Y86745D01*
X24507Y86765D01*
X24552Y86788D01*
X24596Y86814D01*
X24637Y86843D01*
X24676Y86876D01*
X24712Y86912D01*
X24746Y86950D01*
X24776Y86991D01*
X24803Y87033D01*
X24827Y87078D01*
X24847Y87125D01*
X24864Y87173D01*
X24877Y87222D01*
X24886Y87272D01*
X24891Y87323D01*
X24892Y87373D01*
X24888Y87480D01*
X24881Y87587D01*
X24869Y87694D01*
X24854Y87800D01*
X24834Y87905D01*
X24811Y88010D01*
X24784Y88113D01*
X24753Y88216D01*
X24718Y88317D01*
X24680Y88417D01*
X24638Y88516D01*
X23115Y88390D02*
X23094Y88436D01*
X23070Y88481D01*
X23042Y88523D01*
X23012Y88564D01*
X22978Y88602D01*
X22941Y88637D01*
X22902Y88669D01*
X22861Y88699D01*
X22817Y88724D01*
X22771Y88747D01*
X22724Y88766D01*
X22676Y88781D01*
X22626Y88792D01*
X22576Y88800D01*
X22525Y88804D01*
X22475Y88803D01*
X22424Y88799D01*
X22374Y88791D01*
X22324Y88779D01*
X22276Y88764D01*
X22229Y88744D01*
X22184Y88721D01*
X22140Y88695D01*
X22099Y88666D01*
X22060Y88633D01*
X22024Y88597D01*
X21990Y88559D01*
X21960Y88518D01*
X21933Y88476D01*
X21909Y88431D01*
X21889Y88384D01*
X21872Y88336D01*
X21859Y88287D01*
X21850Y88237D01*
X21845Y88186D01*
X21844Y88136D01*
X21843Y88135D02*
X21847Y88006D01*
X21855Y87876D01*
X21867Y87747D01*
X21882Y87618D01*
X21901Y87490D01*
X21925Y87363D01*
X21952Y87236D01*
X21982Y87110D01*
X22017Y86985D01*
X22055Y86861D01*
X22097Y86738D01*
D11*
X36830Y12700D03*
X39370Y38100D03*
X36830Y63500D03*
X39370Y88900D03*
X62230Y12700D03*
X64770Y38100D03*
X62230Y63500D03*
X64770Y88900D03*
M02*
