G04 EAGLE Gerber X2 export*
G75*
%MOMM*%
%FSLAX34Y34*%
%LPD*%
%AMOC8*
5,1,8,0,0,1.08239X$1,22.5*%
G01*
%ADD10C,0.254000*%


D10*
X19050Y6350D02*
X19074Y5797D01*
X19146Y5247D01*
X19266Y4707D01*
X19433Y4178D01*
X19645Y3666D01*
X19901Y3175D01*
X20198Y2708D01*
X20536Y2268D01*
X20910Y1860D01*
X21318Y1486D01*
X21758Y1148D01*
X22225Y851D01*
X22716Y595D01*
X23228Y383D01*
X23757Y216D01*
X24297Y96D01*
X24847Y24D01*
X25400Y0D01*
X76200Y0D01*
X76532Y15D01*
X76862Y58D01*
X77186Y130D01*
X77503Y230D01*
X77810Y357D01*
X78105Y510D01*
X78385Y689D01*
X78649Y891D01*
X78894Y1116D01*
X79119Y1361D01*
X79321Y1625D01*
X79500Y1905D01*
X79653Y2200D01*
X79780Y2507D01*
X79880Y2824D01*
X79952Y3148D01*
X79996Y3478D01*
X80010Y3810D01*
X80010Y97790D01*
X79996Y98122D01*
X79952Y98452D01*
X79880Y98776D01*
X79780Y99093D01*
X79653Y99400D01*
X79500Y99695D01*
X79321Y99975D01*
X79119Y100239D01*
X78894Y100484D01*
X78649Y100709D01*
X78385Y100911D01*
X78105Y101090D01*
X77810Y101243D01*
X77503Y101370D01*
X77186Y101470D01*
X76862Y101542D01*
X76532Y101586D01*
X76200Y101600D01*
X25400Y101600D01*
X24847Y101576D01*
X24297Y101504D01*
X23757Y101384D01*
X23228Y101217D01*
X22716Y101005D01*
X22225Y100749D01*
X21758Y100452D01*
X21318Y100114D01*
X20910Y99740D01*
X20536Y99332D01*
X20198Y98892D01*
X19901Y98425D01*
X19645Y97934D01*
X19433Y97422D01*
X19266Y96894D01*
X19146Y96353D01*
X19074Y95803D01*
X19050Y95250D01*
X19050Y6350D01*
M02*
